<svg width="29" height="29" viewBox="0 0 29 29" fill="none" xmlns="http://www.w3.org/2000/svg">
<path fill-rule="evenodd" clip-rule="evenodd" d="M15.6717 18.3904C16.0256 18.0365 16.5994 18.0365 16.9533 18.3904L20.8437 22.2809L24.7342 18.3904C25.0881 18.0365 25.6619 18.0365 26.0158 18.3904C26.3697 18.7443 26.3697 19.3181 26.0158 19.672L21.4845 24.2033C21.1306 24.5572 20.5568 24.5572 20.2029 24.2033L15.6717 19.672C15.3178 19.3181 15.3178 18.7443 15.6717 18.3904Z" fill="#00A1FF"/>
<path fill-rule="evenodd" clip-rule="evenodd" d="M20.8438 11.7812C21.3443 11.7812 21.75 12.187 21.75 12.6875V23.5625C21.75 24.063 21.3443 24.4688 20.8438 24.4688C20.3432 24.4688 19.9375 24.063 19.9375 23.5625V12.6875C19.9375 12.187 20.3432 11.7812 20.8438 11.7812Z" fill="#00A1FF"/>
<path fill-rule="evenodd" clip-rule="evenodd" d="M4.53125 14.5C4.53125 13.9995 4.937 13.5938 5.4375 13.5938H13.5938C14.0943 13.5938 14.5 13.9995 14.5 14.5C14.5 15.0005 14.0943 15.4062 13.5938 15.4062H5.4375C4.937 15.4062 4.53125 15.0005 4.53125 14.5Z" fill="#00A1FF"/>
<path fill-rule="evenodd" clip-rule="evenodd" d="M4.53125 7.25C4.53125 6.7495 4.937 6.34375 5.4375 6.34375H20.8438C21.3443 6.34375 21.75 6.7495 21.75 7.25C21.75 7.7505 21.3443 8.15625 20.8438 8.15625H5.4375C4.937 8.15625 4.53125 7.7505 4.53125 7.25Z" fill="#00A1FF"/>
<path fill-rule="evenodd" clip-rule="evenodd" d="M4.53125 21.75C4.53125 21.2495 4.937 20.8438 5.4375 20.8438H11.7812C12.2818 20.8438 12.6875 21.2495 12.6875 21.75C12.6875 22.2505 12.2818 22.6562 11.7812 22.6562H5.4375C4.937 22.6562 4.53125 22.2505 4.53125 21.75Z" fill="#00A1FF"/>
</svg>
