<svg width="25" height="25" viewBox="0 0 25 25" fill="none" xmlns="http://www.w3.org/2000/svg">
<g clip-path="url(#clip0_576_1469)">
<path d="M22.7512 1.43418C22.6674 1.38249 22.5709 1.35498 22.4725 1.35498H6.58396C5.21798 1.35498 4.1067 2.45543 4.1067 3.8041L4.01333 17.4866H1.14195C0.847246 17.4866 0.608398 17.7254 0.608398 18.0201V20.4851C0.610274 22.2952 2.07712 23.762 3.88723 23.7641C3.92392 23.7641 3.96081 23.7604 3.99686 23.7529H17.2533C17.3323 23.7585 17.4119 23.7622 17.4922 23.7622C19.3304 23.7589 20.8189 22.2683 20.8195 20.43V12.4318H24.416C24.7107 12.4318 24.9496 12.1929 24.9496 11.8982V3.97792C24.9431 2.70428 24.0104 1.62488 22.7512 1.43418ZM1.6755 20.4853V18.5539H14.1648V20.4303C14.1641 21.2662 14.4786 22.0715 15.0457 22.6858H3.81429C3.78907 22.686 3.76406 22.6878 3.73926 22.6916C2.57858 22.6126 1.67696 21.6487 1.6755 20.4853ZM19.7524 3.97792V20.43C19.7514 21.0265 19.5144 21.598 19.0932 22.0201C18.6899 22.4338 18.142 22.6753 17.5647 22.6937C17.5359 22.6887 17.5067 22.6862 17.4774 22.686H17.2898C16.1276 22.5715 15.2396 21.5982 15.2319 20.4305V18.0201C15.2319 17.7256 14.993 17.4866 14.6983 17.4866H5.08043L5.1738 3.80785C5.18151 3.03629 5.81218 2.41625 6.58396 2.42208H20.2825C19.9388 2.86789 19.7522 3.41499 19.7524 3.97792ZM23.8825 11.3647H20.8195V3.97792C20.8335 3.14196 21.515 2.47189 22.351 2.47189C23.187 2.47189 23.8685 3.14196 23.8825 3.97792V11.3647Z" fill="#C49E01"/>
<path d="M7.45884 7.13534H12.5122C12.8069 7.13534 13.0457 6.89649 13.0457 6.60179C13.0457 6.30708 12.8069 6.06824 12.5122 6.06824H7.45884C7.16414 6.06824 6.92529 6.30708 6.92529 6.60179C6.92529 6.89649 7.16414 7.13534 7.45884 7.13534Z" fill="#C49E01"/>
<path d="M16.8852 9.88293H7.45884C7.16414 9.88293 6.92529 10.1218 6.92529 10.4165C6.92529 10.711 7.16414 10.95 7.45884 10.95H16.8852C17.1799 10.95 17.4187 10.711 17.4187 10.4165C17.4187 10.1218 17.1799 9.88293 16.8852 9.88293Z" fill="#C49E01"/>
<path d="M16.8852 13.6976H7.45884C7.16414 13.6976 6.92529 13.9367 6.92529 14.2312C6.92529 14.5259 7.16414 14.7647 7.45884 14.7647H16.8852C17.1799 14.7647 17.4187 14.5259 17.4187 14.2312C17.4187 13.9367 17.1799 13.6976 16.8852 13.6976Z" fill="#C49E01"/>
</g>
<defs>
<clipPath id="clip0_576_1469">
<rect width="24.3412" height="24.3412" fill="white" transform="translate(0.608398 0.383301)"/>
</clipPath>
</defs>
</svg>
